<?xml version="1.0" encoding="iso-8859-1"?>
<!-- Generator: Adobe Illustrator 19.0.0, SVG Export Plug-In . SVG Version: 6.00 Build 0)  -->
<svg xmlns="http://www.w3.org/2000/svg" xmlns:xlink="http://www.w3.org/1999/xlink" version="1.1" id="Layer_1" x="0px" y="0px" viewBox="0 0 512 512" style="enable-background:new 0 0 512 512;" xml:space="preserve">
<path style="fill:#D5DCED;" d="M63.57,63.57v375.696c0,35.425,86.155,64.143,192.43,64.143s192.43-28.718,192.43-64.143V63.57H63.57  z"/>
<path style="fill:#C7CFE2;" d="M191.857,499.681V63.57H63.57v375.696C63.57,467.182,117.168,490.866,191.857,499.681z"/>
<g>
	<path style="fill:#00C3FF;" d="M63.57,191.031c34.79,30.738,113.969,46.642,192.43,46.642s157.64-15.904,192.43-46.642v-26.664   h-24.396C406.293,179.678,349.652,201.02,256,201.02s-150.293-21.342-168.033-36.653H63.57V191.031z"/>
	<path style="fill:#00C3FF;" d="M63.57,291.827C98.36,322.566,177.539,338.47,256,338.47s157.64-15.904,192.43-46.642v-26.664   h-24.396c-17.74,15.311-74.381,36.653-168.033,36.653s-150.293-21.342-168.033-36.653H63.57V291.827z"/>
	<path style="fill:#00C3FF;" d="M63.57,392.624c34.79,30.738,113.969,46.642,192.43,46.642s157.64-15.904,192.43-46.642V365.96   h-24.396c-17.74,15.311-74.381,36.653-168.033,36.653S105.707,381.27,87.967,365.96H63.57V392.624z"/>
</g>
<ellipse style="fill:#E4EAF8;" cx="256" cy="72.734" rx="192.43" ry="64.143"/>
<path d="M256,0c-52.298,0-101.587,6.829-138.785,19.228C65.778,36.374,54.98,57.788,54.98,72.734v366.532  C54.98,486.509,158.55,512,256,512c52.298,0,101.587-6.829,138.785-19.228c51.437-17.146,62.235-38.56,62.235-53.506V72.734  C457.02,25.491,353.45,0,256,0z M122.649,35.528C158.14,23.696,205.5,17.181,256,17.181s97.86,6.515,133.351,18.347  c31.613,10.538,50.488,24.445,50.488,37.205s-18.874,26.668-50.488,37.205C353.86,121.771,306.5,128.286,256,128.286  s-97.86-6.515-133.351-18.347C91.035,99.401,72.161,85.494,72.161,72.734S91.035,46.066,122.649,35.528z M389.351,476.472  C353.86,488.304,306.5,494.819,256,494.819s-97.86-6.515-133.351-18.347c-31.613-10.537-50.488-24.445-50.488-37.205V405.93  c9.266,7.611,23.152,15.256,43.635,22.221c0.916,0.312,1.85,0.459,2.767,0.459c3.577,0,6.917-2.252,8.132-5.827  c1.527-4.492-0.875-9.372-5.367-10.9c-30.786-10.47-49.167-24.213-49.167-36.761v-5.796  c33.416,27.381,110.362,41.876,183.839,41.876c22.34,0,44.26-1.249,65.151-3.709c4.712-0.554,8.082-4.824,7.527-9.536  c-0.556-4.712-4.82-8.079-9.537-7.527c-20.227,2.381-41.471,3.59-63.141,3.59c-50.5,0-97.86-6.515-133.351-18.347  c-31.613-10.537-50.488-24.445-50.488-37.205v-33.336c9.266,7.611,23.152,15.256,43.635,22.221c0.916,0.312,1.85,0.459,2.767,0.459  c3.577,0,6.917-2.252,8.132-5.827c1.527-4.492-0.875-9.372-5.367-10.9c-30.786-10.47-49.167-24.213-49.167-36.761v-5.796  c33.416,27.381,110.362,41.876,183.839,41.876c22.34,0,44.26-1.249,65.151-3.709c4.712-0.554,8.082-4.824,7.527-9.536  s-4.82-8.08-9.537-7.527c-20.227,2.381-41.471,3.59-63.141,3.59c-50.5,0-97.86-6.515-133.351-18.347  c-31.613-10.537-50.488-24.445-50.488-37.205v-33.336c9.266,7.611,23.152,15.256,43.635,22.221c0.916,0.312,1.85,0.459,2.767,0.459  c3.577,0,6.917-2.252,8.132-5.827c1.527-4.492-0.875-9.372-5.367-10.9c-30.786-10.47-49.167-24.213-49.167-36.761v-5.796  c33.416,27.381,110.362,41.876,183.839,41.876c22.34,0,44.26-1.248,65.151-3.709c4.712-0.554,8.082-4.824,7.527-9.536  c-0.556-4.712-4.82-8.08-9.537-7.527c-20.227,2.381-41.471,3.59-63.141,3.59c-50.5,0-97.86-6.515-133.351-18.347  c-31.613-10.537-50.488-24.445-50.488-37.205v-33.286c33.416,27.381,110.362,41.876,183.839,41.876  c52.298,0,101.587-6.829,138.785-19.228c21.267-7.089,35.572-14.908,45.054-22.696v33.334c0,9.749-11.534,20.631-31.644,29.858  c-4.313,1.978-6.205,7.078-4.225,11.39c1.447,3.151,4.559,5.01,7.814,5.01c1.198,0,2.416-0.253,3.577-0.786  c10.508-4.821,18.471-9.814,24.48-14.767v5.947c0,12.76-18.874,26.668-50.488,37.205C353.86,222.568,306.5,229.083,256,229.083  c-35.129,0-69.387-3.222-99.069-9.318c-4.649-0.955-9.19,2.039-10.143,6.687c-0.954,4.648,2.039,9.189,6.687,10.143  c30.8,6.326,66.253,9.67,102.525,9.67c52.298,0,101.587-6.829,138.785-19.228c19.52-6.507,34.614-14.149,45.054-22.702v33.34  c0,9.749-11.534,20.631-31.644,29.857c-4.313,1.978-6.205,7.078-4.225,11.39c1.447,3.151,4.559,5.01,7.814,5.01  c1.198,0,2.416-0.253,3.577-0.786c10.508-4.821,18.471-9.814,24.48-14.767v5.947c0,12.76-18.874,26.668-50.488,37.205  C353.86,323.364,306.5,329.879,256,329.879c-35.129,0-69.387-3.222-99.069-9.318c-4.649-0.958-9.19,2.039-10.143,6.687  c-0.954,4.648,2.039,9.189,6.687,10.143c30.8,6.326,66.253,9.67,102.525,9.67c52.298,0,101.587-6.829,138.785-19.228  c19.52-6.507,34.614-14.149,45.054-22.702v33.34c0,9.749-11.534,20.631-31.644,29.858c-4.313,1.978-6.205,7.077-4.225,11.39  c1.447,3.151,4.559,5.01,7.814,5.01c1.198,0,2.416-0.253,3.577-0.786c10.508-4.821,18.471-9.814,24.48-14.767v5.947  c0,12.76-18.874,26.668-50.488,37.205C353.86,424.161,306.5,430.676,256,430.676c-35.129,0-69.387-3.222-99.069-9.318  c-4.649-0.954-9.19,2.039-10.143,6.687c-0.954,4.648,2.039,9.189,6.687,10.143c30.8,6.326,66.253,9.67,102.525,9.67  c52.298,0,101.587-6.829,138.785-19.228c19.52-6.507,34.614-14.149,45.054-22.702v33.34  C439.839,452.026,420.965,465.935,389.351,476.472z"/>
<path d="M356.787,200.12c0.573,0,1.155-0.058,1.736-0.178c6.465-1.328,12.784-2.799,18.781-4.378  c4.589-1.207,7.329-5.903,6.123-10.493c-1.207-4.589-5.907-7.335-10.493-6.122c-5.696,1.498-11.707,2.898-17.866,4.164  c-4.648,0.954-7.641,5.496-6.687,10.143C349.216,197.32,352.793,200.12,356.787,200.12z"/>
<path d="M356.787,300.916c0.573,0,1.155-0.058,1.736-0.178c6.465-1.328,12.784-2.799,18.781-4.378  c4.589-1.207,7.329-5.903,6.123-10.493c-1.207-4.589-5.907-7.338-10.493-6.122c-5.696,1.498-11.707,2.898-17.866,4.164  c-4.648,0.954-7.641,5.496-6.687,10.143C349.216,298.117,352.793,300.916,356.787,300.916z"/>
<path d="M356.787,401.713c0.573,0,1.155-0.058,1.736-0.178c6.465-1.328,12.784-2.799,18.781-4.378  c4.589-1.207,7.329-5.903,6.123-10.493c-1.207-4.589-5.907-7.335-10.493-6.122c-5.696,1.498-11.707,2.898-17.866,4.164  c-4.648,0.954-7.641,5.496-6.687,10.143C349.216,398.913,352.793,401.713,356.787,401.713z"/>
<g>
</g>
<g>
</g>
<g>
</g>
<g>
</g>
<g>
</g>
<g>
</g>
<g>
</g>
<g>
</g>
<g>
</g>
<g>
</g>
<g>
</g>
<g>
</g>
<g>
</g>
<g>
</g>
<g>
</g>
</svg>
