<?xml version="1.0" encoding="iso-8859-1"?>
<!-- Generator: Adobe Illustrator 19.0.0, SVG Export Plug-In . SVG Version: 6.00 Build 0)  -->
<svg xmlns="http://www.w3.org/2000/svg" xmlns:xlink="http://www.w3.org/1999/xlink" version="1.1" id="Layer_1" x="0px" y="0px" viewBox="0 0 512 512" style="enable-background:new 0 0 512 512;" xml:space="preserve">
<path style="fill:#5B5D6E;" d="M485.083,503.409H26.917c-10.122,0-18.327-8.205-18.327-18.327V26.917  c0-10.122,8.205-18.327,18.327-18.327h333.023c9.721,0,19.044,3.861,25.917,10.736l106.816,106.816  c6.874,6.874,10.736,16.196,10.736,25.917v333.023C503.409,495.205,495.205,503.409,485.083,503.409z"/>
<path style="fill:#E4EAF8;" d="M411.776,448.43H100.224c-10.122,0-18.327-8.205-18.327-18.327V246.837  c0-10.122,8.205-18.327,18.327-18.327h311.553c10.122,0,18.327,8.205,18.327,18.327v183.266  C430.103,440.225,421.898,448.43,411.776,448.43z"/>
<path style="fill:#464655;" d="M81.897,8.591v155.776c0,10.121,8.206,18.327,18.327,18.327H338.47  c10.121,0,18.327-8.206,18.327-18.327V8.591H81.897z"/>
<path style="fill:#D5DCED;" d="M155.204,8.591v174.103H338.47c10.122,0,18.327-8.205,18.327-18.327V8.591H155.204z"/>
<rect x="283.49" y="45.244" style="fill:#464655;" width="36.653" height="100.796"/>
<path style="fill:#7DF5A5;" d="M411.776,228.51H100.224c-10.122,0-18.327,8.205-18.327,18.327v27.49h348.206v-27.49  C430.103,236.715,421.898,228.51,411.776,228.51z"/>
<path d="M498.749,120.067L391.933,13.251C383.387,4.707,372.026,0,359.941,0H26.917C12.075,0,0,12.075,0,26.917v458.166  C0,499.925,12.075,512,26.917,512h458.166C499.925,512,512,499.925,512,485.083V152.059  C512,139.974,507.293,128.613,498.749,120.067z M155.204,54.98c-4.744,0-8.591,3.846-8.591,8.591v110.532h-46.389  c-5.369,0-9.736-4.367-9.736-9.736V17.181h56.125v9.736c0,4.744,3.846,8.591,8.591,8.591c4.744,0,8.591-3.846,8.591-8.591v-9.736  h184.412v147.186c0,5.369-4.367,9.736-9.736,9.736H163.794V63.57C163.794,58.826,159.948,54.98,155.204,54.98z M494.819,485.083  c0,5.369-4.367,9.736-9.736,9.736H26.917c-5.369,0-9.736-4.367-9.736-9.736V26.917c0-5.369,4.367-9.736,9.736-9.736h46.389v147.186  c0,14.842,12.075,26.917,26.917,26.917H338.47c14.842,0,26.917-12.075,26.917-26.917V17.708c5.42,1.061,10.405,3.7,14.397,7.693  l106.816,106.816c5.3,5.3,8.219,12.348,8.219,19.843V485.083z"/>
<path d="M411.776,219.919H393.45c-4.744,0-8.591,3.846-8.591,8.591c0,4.744,3.846,8.591,8.591,8.591h18.327  c5.369,0,9.736,4.367,9.736,9.736v18.899H90.488v-18.899c0-5.369,4.367-9.736,9.736-9.736h256.572c4.744,0,8.591-3.846,8.591-8.591  c0-4.744-3.846-8.591-8.591-8.591H100.224c-14.842,0-26.917,12.075-26.917,26.917v183.266c0,14.842,12.075,26.917,26.917,26.917  h18.327c4.744,0,8.591-3.846,8.591-8.591s-3.846-8.591-8.591-8.591h-18.327c-5.369,0-9.736-4.367-9.736-9.736V282.917h331.025  v147.186c0,5.369-4.367,9.736-9.736,9.736H155.205c-4.744,0-8.591,3.846-8.591,8.591s3.846,8.591,8.591,8.591h256.572  c14.842,0,26.917-12.075,26.917-26.917V246.837C438.694,231.994,426.619,219.919,411.776,219.919z"/>
<path d="M375.123,337.897c4.744,0,8.591-3.846,8.591-8.591s-3.846-8.591-8.591-8.591h-27.49c-4.744,0-8.591,3.846-8.591,8.591  s3.846,8.591,8.591,8.591H375.123z"/>
<path d="M310.982,320.716H136.877c-4.744,0-8.591,3.846-8.591,8.591s3.846,8.591,8.591,8.591h174.105  c4.744,0,8.591-3.846,8.591-8.591S315.728,320.716,310.982,320.716z"/>
<path d="M201.588,384.286c0,4.744,3.846,8.591,8.591,8.591h164.944c4.744,0,8.591-3.846,8.591-8.591  c0-4.744-3.846-8.591-8.591-8.591H210.179C205.435,375.696,201.588,379.542,201.588,384.286z"/>
<path d="M172.957,384.286c0-4.744-3.846-8.591-8.591-8.591h-27.49c-4.744,0-8.591,3.846-8.591,8.591  c0,4.744,3.846,8.591,8.591,8.591h27.49C169.111,392.877,172.957,389.031,172.957,384.286z"/>
<path d="M283.49,154.631h36.653c4.744,0,8.591-3.846,8.591-8.591V45.244c0-4.744-3.846-8.591-8.591-8.591H283.49  c-4.744,0-8.591,3.846-8.591,8.591V146.04C274.899,150.785,278.746,154.631,283.49,154.631z M292.081,53.834h19.472v83.615h-19.472  V53.834z"/>
<g>
</g>
<g>
</g>
<g>
</g>
<g>
</g>
<g>
</g>
<g>
</g>
<g>
</g>
<g>
</g>
<g>
</g>
<g>
</g>
<g>
</g>
<g>
</g>
<g>
</g>
<g>
</g>
<g>
</g>
</svg>
