<?xml version="1.0" encoding="iso-8859-1"?>
<!-- Generator: Adobe Illustrator 19.0.0, SVG Export Plug-In . SVG Version: 6.00 Build 0)  -->
<svg xmlns="http://www.w3.org/2000/svg" xmlns:xlink="http://www.w3.org/1999/xlink" version="1.1" id="Layer_1" x="0px" y="0px" viewBox="0 0 512 512" style="enable-background:new 0 0 512 512;" xml:space="preserve">
<path style="fill:#E4EAF8;" d="M397.094,187.591c-4.224,0-8.371,0.31-12.467,0.786C360.284,142.171,311.855,110.63,256,110.63  s-104.284,31.541-128.627,77.746c-4.096-0.477-8.242-0.786-12.467-0.786c-59.034,0-106.889,47.855-106.889,106.889  S55.872,401.37,114.906,401.37c24.323,0,257.865,0,282.188,0c59.034,0,106.889-47.855,106.889-106.889  S456.128,187.591,397.094,187.591z"/>
<path style="fill:#D5DCED;" d="M375.716,367.165H194.967c-58.782,0-108.901-46.14-109.972-104.911  c-0.526-28.857,10.477-55.076,28.595-74.597C54.361,188.38,6.713,237.216,8.044,296.922C9.353,355.586,59.733,401.37,118.412,401.37  h257.304c9.446,0,17.102-7.656,17.102-17.102l0,0C392.818,374.821,385.162,367.165,375.716,367.165z"/>
<path style="fill:#00C3FF;" d="M196.142,213.244c0,0,0,17.102,0,51.307c0,42.756,25.653,76.96,59.858,85.512  c34.205-8.551,59.858-42.756,59.858-85.512c0-34.205,0-51.307,0-51.307c-6.019,10.18-17.1,17.102-29.929,17.102  c-12.829,0-23.91-6.922-29.929-17.102c-6.019,10.18-17.1,17.102-29.929,17.102S202.161,223.424,196.142,213.244z"/>
<path style="fill:#00AAF0;" d="M256,213.244c-6.019,10.18-17.1,17.102-29.929,17.102s-23.91-6.922-29.929-17.102  c0,0,0,17.102,0,51.307c0,42.756,25.653,76.96,59.858,85.512V213.244z"/>
<path d="M397.094,179.574c-2.558,0-5.199,0.105-7.982,0.315c-27.347-47.806-77.859-77.276-133.111-77.276  s-105.765,29.469-133.111,77.276c-2.783-0.211-5.425-0.315-7.982-0.315C51.546,179.574,0,231.122,0,294.48  s51.546,114.906,114.906,114.906h282.188c63.36,0,114.906-51.547,114.906-114.906S460.454,179.574,397.094,179.574z   M397.094,393.353H114.906c-54.519,0-98.873-44.354-98.873-98.873s44.354-98.873,98.873-98.873c3.534,0,7.308,0.239,11.539,0.732  c3.295,0.391,6.477-1.297,8.02-4.225c23.874-45.317,70.443-73.467,121.535-73.467s97.662,28.15,121.535,73.466  c1.545,2.929,4.732,4.618,8.02,4.225c4.231-0.493,8.005-0.732,11.539-0.732c54.519,0,98.873,44.354,98.873,98.873  S451.613,393.353,397.094,393.353z"/>
<path d="M256,136.818c-12.52,0-24.856,1.935-36.668,5.75c-4.213,1.36-6.526,5.879-5.165,10.091  c1.361,4.213,5.878,6.528,10.092,5.165c10.218-3.3,20.896-4.972,31.74-4.972c35.353,0,67.854,17.8,86.942,47.618  c1.531,2.39,4.117,3.695,6.759,3.695c1.479,0,2.977-0.409,4.315-1.267c3.729-2.387,4.816-7.344,2.43-11.074  C334.396,157.382,296.847,136.818,256,136.818z"/>
<path d="M420.844,217.332c-6.154-1.892-12.549-3.041-19.009-3.415c-4.426-0.247-8.211,3.12-8.467,7.54  c-0.257,4.42,3.119,8.211,7.539,8.467c5.177,0.3,10.299,1.221,15.225,2.735c0.785,0.242,1.579,0.356,2.359,0.356  c3.428,0,6.6-2.216,7.661-5.663C427.452,223.119,425.077,218.634,420.844,217.332z"/>
<path d="M449.364,232.993c-3.371-2.871-8.431-2.462-11.3,0.911c-2.869,3.372-2.461,8.433,0.912,11.3  c14.48,12.321,22.787,30.281,22.787,49.276c0,4.428,3.589,8.017,8.017,8.017s8.017-3.588,8.017-8.017  C477.795,270.776,467.432,248.365,449.364,232.993z"/>
<path d="M114.906,213.779c-15.159,0-29.935,4.23-42.733,12.23c-3.754,2.347-4.894,7.293-2.547,11.048  c1.521,2.432,4.133,3.767,6.806,3.767c1.452,0,2.921-0.394,4.242-1.221c10.245-6.405,22.082-9.791,34.232-9.791  c4.427,0,8.017-3.588,8.017-8.017S119.333,213.779,114.906,213.779z"/>
<path d="M256,247.983c-4.427,0-8.017,3.588-8.017,8.017v59.858c0,4.428,3.589,8.017,8.017,8.017c4.427,0,8.017-3.588,8.017-8.017  V256C264.017,251.572,260.427,247.983,256,247.983z"/>
<path d="M317.973,205.512c-3.482-0.952-7.177,0.542-9.016,3.652c-4.874,8.244-13.483,13.166-23.028,13.166  c-9.545,0-18.154-4.921-23.028-13.166c-1.443-2.439-4.066-3.937-6.901-3.937c-2.835,0-5.458,1.496-6.901,3.937  c-4.874,8.244-13.483,13.166-23.028,13.166s-18.154-4.921-23.028-13.166c-1.839-3.11-5.53-4.606-9.016-3.652  c-3.486,0.953-5.901,4.12-5.901,7.732v51.307c0,45.223,27.111,83.584,65.93,93.289c0.638,0.159,1.291,0.239,1.944,0.239  c0.653,0,1.306-0.079,1.944-0.239c38.819-9.704,65.93-48.066,65.93-93.289v-51.307C323.875,209.631,321.458,206.464,317.973,205.512  z M307.841,264.551c0,37.073-21.214,68.499-51.841,77.215c-30.627-8.716-51.841-40.142-51.841-77.215v-32.269  c6.538,3.907,14.1,6.081,21.912,6.081c11.271,0,22.02-4.525,29.929-12.253c7.909,7.727,18.658,12.253,29.929,12.253  c7.813,0,15.374-2.174,21.912-6.081V264.551z"/>
<g>
</g>
<g>
</g>
<g>
</g>
<g>
</g>
<g>
</g>
<g>
</g>
<g>
</g>
<g>
</g>
<g>
</g>
<g>
</g>
<g>
</g>
<g>
</g>
<g>
</g>
<g>
</g>
<g>
</g>
</svg>
